<svg width="221" height="216" viewBox="0 0 221 216" fill="none" xmlns="http://www.w3.org/2000/svg">
<path d="M203.661 145.293H16.8068C13.4102 145.293 10.1528 146.643 7.75103 149.044C5.34929 151.446 4 154.704 4 158.1C4 161.497 5.34929 164.754 7.75103 167.156C10.1528 169.558 13.4102 170.907 16.8068 170.907H203.661C205.479 170.907 207.277 170.519 208.934 169.769C210.591 169.019 212.069 167.924 213.268 166.557C213.811 165.939 214.294 165.27 214.71 164.561C215.032 164.017 215.312 163.448 215.546 162.861C216.326 160.918 216.618 158.813 216.395 156.732C216.172 154.65 215.443 152.654 214.269 150.92C213.096 149.186 211.516 147.766 209.666 146.785C207.816 145.804 205.754 145.292 203.661 145.293Z" fill="#CCCCCC"/>
<path d="M185.877 10.8455H30.7988V20.3304H185.877V10.8455Z" fill="#ECF0F1"/>
<path d="M106.915 8H109.761C110.446 8 111.124 8.13493 111.757 8.3971C112.39 8.65926 112.965 9.04352 113.45 9.52794C113.934 10.0124 114.318 10.5874 114.581 11.2204C114.843 11.8533 114.978 12.5316 114.978 13.2167H101.699C101.699 11.8332 102.248 10.5063 103.227 9.52794C104.205 8.54962 105.532 8 106.915 8Z" fill="#ECF0F1"/>
<path d="M215.723 163.978C211.575 168.894 207.088 173.513 202.295 177.802H18.1775C13.385 173.513 8.89824 168.894 4.75 163.978H215.723Z" fill="#3F3D56"/>
<path d="M125.65 116.098H94.6502C94.4832 116.097 94.317 116.122 94.1584 116.175C93.8219 116.279 93.5276 116.488 93.3187 116.772C93.1098 117.055 92.9975 117.398 92.998 117.751V166.724H127.307V117.751C127.307 117.533 127.264 117.318 127.18 117.118C127.097 116.917 126.975 116.735 126.821 116.581C126.667 116.428 126.484 116.306 126.284 116.223C126.083 116.14 125.867 116.098 125.65 116.098ZM113.918 140.26C113.919 141.055 113.657 141.827 113.173 142.457C112.711 143.068 112.069 143.519 111.337 143.746C110.605 143.973 109.821 143.965 109.094 143.722C108.367 143.479 107.735 143.015 107.286 142.394C106.837 141.773 106.595 141.027 106.593 140.26V134.578C106.602 133.613 106.991 132.69 107.677 132.01C108.363 131.331 109.29 130.949 110.255 130.949C111.221 130.949 112.147 131.331 112.833 132.01C113.519 132.69 113.909 133.613 113.918 134.578V140.26Z" fill="#2F2E41"/>
<path d="M92.8931 165.158V169.88C92.893 170.125 92.99 170.36 93.1627 170.534C93.3354 170.707 93.5698 170.805 93.8147 170.807H126.491C126.735 170.805 126.969 170.706 127.142 170.533C127.314 170.359 127.411 170.125 127.412 169.88V165.158H92.8931Z" fill="#3F3D56"/>
<path d="M176.983 39.6732H44.4738C43.3353 39.6747 42.2438 40.1273 41.4383 40.9319C40.6328 41.7365 40.179 42.8275 40.1763 43.966V133.384C40.1772 134.524 40.6302 135.616 41.436 136.422C42.2418 137.228 43.3343 137.681 44.4738 137.682H176.983C178.122 137.681 179.215 137.228 180.02 136.422C180.826 135.616 181.279 134.524 181.28 133.384V43.966C181.277 42.8275 180.824 41.7365 180.018 40.9319C179.213 40.1273 178.121 39.6747 176.983 39.6732Z" fill="#3F3D56"/>
<path d="M175.875 42.777H45.5771C44.9675 42.7783 44.3834 43.0214 43.9528 43.4529C43.5222 43.8843 43.2803 44.469 43.2803 45.0786V132.281C43.2813 132.89 43.5236 133.474 43.9541 133.904C44.3847 134.335 44.9683 134.577 45.5771 134.578H175.875C176.484 134.577 177.067 134.335 177.498 133.904C177.928 133.474 178.171 132.89 178.172 132.281V45.0786C178.172 44.469 177.93 43.8843 177.499 43.4529C177.069 43.0214 176.484 42.7783 175.875 42.777Z" fill="#3498DB"/>
<path d="M151.894 170.73L150.691 165.014C150.641 164.781 150.534 164.564 150.379 164.383C150.223 164.202 150.025 164.063 149.803 163.978C149.642 163.915 149.47 163.883 149.297 163.883H74.1797C74.0065 163.883 73.8348 163.915 73.6736 163.978C73.4509 164.063 73.2529 164.202 73.0978 164.383C72.9427 164.564 72.8353 164.781 72.7854 165.014L71.5821 170.73C71.5386 170.938 71.5419 171.152 71.5918 171.358C71.6417 171.564 71.7368 171.757 71.8704 171.921C72.0039 172.086 72.1725 172.219 72.3638 172.31C72.5551 172.401 72.7644 172.449 72.9764 172.449H150.495C150.708 172.45 150.918 172.403 151.11 172.311C151.302 172.22 151.47 172.085 151.603 171.919C151.737 171.755 151.832 171.563 151.883 171.358C151.933 171.152 151.937 170.938 151.894 170.73Z" fill="#2F2E41"/>
<path d="M76.8844 164.912H74.9631C74.8343 164.912 74.73 165.016 74.73 165.145V166.112C74.73 166.24 74.8343 166.345 74.9631 166.345H76.8844C77.0132 166.345 77.1175 166.24 77.1175 166.112V165.145C77.1175 165.016 77.0132 164.912 76.8844 164.912Z" fill="#3F3D56"/>
<path d="M81.6598 164.912H79.7385C79.6097 164.912 79.5054 165.016 79.5054 165.145V166.112C79.5054 166.24 79.6097 166.345 79.7385 166.345H81.6598C81.7885 166.345 81.8929 166.24 81.8929 166.112V165.145C81.8929 165.016 81.7885 164.912 81.6598 164.912Z" fill="#3F3D56"/>
<path d="M86.4347 164.912H84.5134C84.3846 164.912 84.2803 165.016 84.2803 165.145V166.112C84.2803 166.24 84.3846 166.345 84.5134 166.345H86.4347C86.5634 166.345 86.6678 166.24 86.6678 166.112V165.145C86.6678 165.016 86.5634 164.912 86.4347 164.912Z" fill="#3F3D56"/>
<path d="M91.2101 164.912H89.2888C89.16 164.912 89.0557 165.016 89.0557 165.145V166.112C89.0557 166.24 89.16 166.345 89.2888 166.345H91.2101C91.3388 166.345 91.4432 166.24 91.4432 166.112V165.145C91.4432 165.016 91.3388 164.912 91.2101 164.912Z" fill="#3F3D56"/>
<path d="M95.985 164.912H94.0637C93.9349 164.912 93.8306 165.016 93.8306 165.145V166.112C93.8306 166.24 93.9349 166.345 94.0637 166.345H95.985C96.1137 166.345 96.2181 166.24 96.2181 166.112V165.145C96.2181 165.016 96.1137 164.912 95.985 164.912Z" fill="#3F3D56"/>
<path d="M100.76 164.912H98.8386C98.7098 164.912 98.6055 165.016 98.6055 165.145V166.112C98.6055 166.24 98.7098 166.345 98.8386 166.345H100.76C100.889 166.345 100.993 166.24 100.993 166.112V165.145C100.993 165.016 100.889 164.912 100.76 164.912Z" fill="#3F3D56"/>
<path d="M105.535 164.912H103.614C103.485 164.912 103.381 165.016 103.381 165.145V166.112C103.381 166.24 103.485 166.345 103.614 166.345H105.535C105.664 166.345 105.768 166.24 105.768 166.112V165.145C105.768 165.016 105.664 164.912 105.535 164.912Z" fill="#3F3D56"/>
<path d="M110.31 164.912H108.389C108.26 164.912 108.156 165.016 108.156 165.145V166.112C108.156 166.24 108.26 166.345 108.389 166.345H110.31C110.439 166.345 110.543 166.24 110.543 166.112V165.145C110.543 165.016 110.439 164.912 110.31 164.912Z" fill="#3F3D56"/>
<path d="M115.085 164.912H113.164C113.035 164.912 112.931 165.016 112.931 165.145V166.112C112.931 166.24 113.035 166.345 113.164 166.345H115.085C115.214 166.345 115.318 166.24 115.318 166.112V165.145C115.318 165.016 115.214 164.912 115.085 164.912Z" fill="#3F3D56"/>
<path d="M119.86 164.912H117.939C117.81 164.912 117.706 165.016 117.706 165.145V166.112C117.706 166.24 117.81 166.345 117.939 166.345H119.86C119.989 166.345 120.094 166.24 120.094 166.112V165.145C120.094 165.016 119.989 164.912 119.86 164.912Z" fill="#3F3D56"/>
<path d="M124.635 164.912H122.714C122.585 164.912 122.481 165.016 122.481 165.145V166.112C122.481 166.24 122.585 166.345 122.714 166.345H124.635C124.764 166.345 124.869 166.24 124.869 166.112V165.145C124.869 165.016 124.764 164.912 124.635 164.912Z" fill="#3F3D56"/>
<path d="M129.411 164.912H127.489C127.361 164.912 127.256 165.016 127.256 165.145V166.112C127.256 166.24 127.361 166.345 127.489 166.345H129.411C129.54 166.345 129.644 166.24 129.644 166.112V165.145C129.644 165.016 129.54 164.912 129.411 164.912Z" fill="#3F3D56"/>
<path d="M134.186 164.912H132.264C132.136 164.912 132.031 165.016 132.031 165.145V166.112C132.031 166.24 132.136 166.345 132.264 166.345H134.186C134.314 166.345 134.419 166.24 134.419 166.112V165.145C134.419 165.016 134.314 164.912 134.186 164.912Z" fill="#3F3D56"/>
<path d="M138.961 164.912H137.039C136.911 164.912 136.806 165.016 136.806 165.145V166.112C136.806 166.24 136.911 166.345 137.039 166.345H138.961C139.089 166.345 139.194 166.24 139.194 166.112V165.145C139.194 165.016 139.089 164.912 138.961 164.912Z" fill="#3F3D56"/>
<path d="M143.736 164.912H141.815C141.686 164.912 141.582 165.016 141.582 165.145V166.112C141.582 166.24 141.686 166.345 141.815 166.345H143.736C143.865 166.345 143.969 166.24 143.969 166.112V165.145C143.969 165.016 143.865 164.912 143.736 164.912Z" fill="#3F3D56"/>
<path d="M148.511 164.912H146.59C146.461 164.912 146.356 165.016 146.356 165.145V166.112C146.356 166.24 146.461 166.345 146.59 166.345H148.511C148.64 166.345 148.744 166.24 148.744 166.112V165.145C148.744 165.016 148.64 164.912 148.511 164.912Z" fill="#3F3D56"/>
<path d="M76.8283 167.3H74.9069C74.7782 167.3 74.6738 167.404 74.6738 167.533V168.499C74.6738 168.628 74.7782 168.732 74.9069 168.732H76.8283C76.957 168.732 77.0614 168.628 77.0614 168.499V167.533C77.0614 167.404 76.957 167.3 76.8283 167.3Z" fill="#3F3D56"/>
<path d="M81.6032 167.3H79.6818C79.5531 167.3 79.4487 167.404 79.4487 167.533V168.499C79.4487 168.628 79.5531 168.732 79.6818 168.732H81.6032C81.7319 168.732 81.8363 168.628 81.8363 168.499V167.533C81.8363 167.404 81.7319 167.3 81.6032 167.3Z" fill="#3F3D56"/>
<path d="M86.3785 167.3H84.4572C84.3285 167.3 84.2241 167.404 84.2241 167.533V168.499C84.2241 168.628 84.3285 168.732 84.4572 168.732H86.3785C86.5073 168.732 86.6117 168.628 86.6117 168.499V167.533C86.6117 167.404 86.5073 167.3 86.3785 167.3Z" fill="#3F3D56"/>
<path d="M91.1535 167.3H89.2321C89.1034 167.3 88.999 167.404 88.999 167.533V168.499C88.999 168.628 89.1034 168.732 89.2321 168.732H91.1535C91.2822 168.732 91.3866 168.628 91.3866 168.499V167.533C91.3866 167.404 91.2822 167.3 91.1535 167.3Z" fill="#3F3D56"/>
<path d="M95.9284 167.3H94.007C93.8783 167.3 93.7739 167.404 93.7739 167.533V168.499C93.7739 168.628 93.8783 168.732 94.007 168.732H95.9284C96.0571 168.732 96.1615 168.628 96.1615 168.499V167.533C96.1615 167.404 96.0571 167.3 95.9284 167.3Z" fill="#3F3D56"/>
<path d="M100.704 167.3H98.7824C98.6537 167.3 98.5493 167.404 98.5493 167.533V168.499C98.5493 168.628 98.6537 168.732 98.7824 168.732H100.704C100.832 168.732 100.937 168.628 100.937 168.499V167.533C100.937 167.404 100.832 167.3 100.704 167.3Z" fill="#3F3D56"/>
<path d="M105.479 167.3H103.557C103.429 167.3 103.324 167.404 103.324 167.533V168.499C103.324 168.628 103.429 168.732 103.557 168.732H105.479C105.607 168.732 105.712 168.628 105.712 168.499V167.533C105.712 167.404 105.607 167.3 105.479 167.3Z" fill="#3F3D56"/>
<path d="M110.254 167.3H108.333C108.204 167.3 108.1 167.404 108.1 167.533V168.499C108.1 168.628 108.204 168.732 108.333 168.732H110.254C110.383 168.732 110.487 168.628 110.487 168.499V167.533C110.487 167.404 110.383 167.3 110.254 167.3Z" fill="#3F3D56"/>
<path d="M115.029 167.3H113.108C112.979 167.3 112.875 167.404 112.875 167.533V168.499C112.875 168.628 112.979 168.732 113.108 168.732H115.029C115.158 168.732 115.262 168.628 115.262 168.499V167.533C115.262 167.404 115.158 167.3 115.029 167.3Z" fill="#3F3D56"/>
<path d="M119.804 167.3H117.883C117.754 167.3 117.649 167.404 117.649 167.533V168.499C117.649 168.628 117.754 168.732 117.883 168.732H119.804C119.933 168.732 120.037 168.628 120.037 168.499V167.533C120.037 167.404 119.933 167.3 119.804 167.3Z" fill="#3F3D56"/>
<path d="M124.579 167.3H122.658C122.529 167.3 122.425 167.404 122.425 167.533V168.499C122.425 168.628 122.529 168.732 122.658 168.732H124.579C124.708 168.732 124.812 168.628 124.812 168.499V167.533C124.812 167.404 124.708 167.3 124.579 167.3Z" fill="#3F3D56"/>
<path d="M129.354 167.3H127.433C127.304 167.3 127.2 167.404 127.2 167.533V168.499C127.2 168.628 127.304 168.732 127.433 168.732H129.354C129.483 168.732 129.587 168.628 129.587 168.499V167.533C129.587 167.404 129.483 167.3 129.354 167.3Z" fill="#3F3D56"/>
<path d="M134.129 167.3H132.208C132.079 167.3 131.975 167.404 131.975 167.533V168.499C131.975 168.628 132.079 168.732 132.208 168.732H134.129C134.258 168.732 134.362 168.628 134.362 168.499V167.533C134.362 167.404 134.258 167.3 134.129 167.3Z" fill="#3F3D56"/>
<path d="M138.904 167.3H136.983C136.854 167.3 136.75 167.404 136.75 167.533V168.499C136.75 168.628 136.854 168.732 136.983 168.732H138.904C139.033 168.732 139.138 168.628 139.138 168.499V167.533C139.138 167.404 139.033 167.3 138.904 167.3Z" fill="#3F3D56"/>
<path d="M143.679 167.3H141.758C141.629 167.3 141.525 167.404 141.525 167.533V168.499C141.525 168.628 141.629 168.732 141.758 168.732H143.679C143.808 168.732 143.912 168.628 143.912 168.499V167.533C143.912 167.404 143.808 167.3 143.679 167.3Z" fill="#3F3D56"/>
<path d="M148.455 167.3H146.533C146.405 167.3 146.3 167.404 146.3 167.533V168.499C146.3 168.628 146.405 168.732 146.533 168.732H148.455C148.583 168.732 148.688 168.628 148.688 168.499V167.533C148.688 167.404 148.583 167.3 148.455 167.3Z" fill="#3F3D56"/>
<path d="M116.461 170.165H97.8274C97.6986 170.165 97.5942 170.269 97.5942 170.398V171.364C97.5942 171.493 97.6986 171.597 97.8274 171.597H116.461C116.59 171.597 116.695 171.493 116.695 171.364V170.398C116.695 170.269 116.59 170.165 116.461 170.165Z" fill="#3F3D56"/>
<path d="M169.327 54.7895H47.4079C47.2812 54.7867 47.1605 54.7344 47.0719 54.6438C46.9832 54.5532 46.9336 54.4314 46.9336 54.3047C46.9336 54.1779 46.9832 54.0562 47.0719 53.9655C47.1605 53.8749 47.2812 53.8226 47.4079 53.8198H169.327C169.454 53.8226 169.574 53.8749 169.663 53.9655C169.752 54.0562 169.801 54.1779 169.801 54.3047C169.801 54.4314 169.752 54.5532 169.663 54.6438C169.574 54.7344 169.454 54.7867 169.327 54.7895Z" fill="#3F3D56"/>
<path d="M55.7071 51.3443C57.2764 51.3443 58.5485 50.0438 58.5485 48.4396C58.5485 46.8354 57.2764 45.5349 55.7071 45.5349C54.1379 45.5349 52.8657 46.8354 52.8657 48.4396C52.8657 50.0438 54.1379 51.3443 55.7071 51.3443Z" fill="#3F3D56"/>
<path d="M65.523 51.3443C67.0923 51.3443 68.3644 50.0438 68.3644 48.4396C68.3644 46.8354 67.0923 45.5349 65.523 45.5349C63.9538 45.5349 62.6816 46.8354 62.6816 48.4396C62.6816 50.0438 63.9538 51.3443 65.523 51.3443Z" fill="#3F3D56"/>
<path d="M75.3385 51.3443C76.9077 51.3443 78.1798 50.0438 78.1798 48.4396C78.1798 46.8354 76.9077 45.5349 75.3385 45.5349C73.7692 45.5349 72.4971 46.8354 72.4971 48.4396C72.4971 50.0438 73.7692 51.3443 75.3385 51.3443Z" fill="#3F3D56"/>
<path d="M163.416 46.2533H156.445C156.307 46.2565 156.176 46.3135 156.079 46.4121C155.983 46.5107 155.929 46.6431 155.929 46.7809C155.929 46.9188 155.983 47.0512 156.079 47.1498C156.176 47.2484 156.307 47.3054 156.445 47.3086H163.416C163.555 47.3066 163.687 47.2502 163.785 47.1515C163.882 47.0527 163.937 46.9196 163.937 46.7809C163.937 46.6423 163.882 46.5092 163.785 46.4104C163.687 46.3117 163.555 46.2553 163.416 46.2533Z" fill="#3F3D56"/>
<path d="M163.416 48.2349H156.445C156.307 48.2379 156.176 48.2948 156.079 48.3935C155.983 48.4921 155.929 48.6245 155.929 48.7625C155.929 48.9005 155.983 49.0329 156.079 49.1315C156.176 49.2302 156.307 49.2871 156.445 49.2902H163.416C163.555 49.2885 163.688 49.2322 163.785 49.1334C163.883 49.0346 163.938 48.9014 163.938 48.7625C163.938 48.6236 163.883 48.4904 163.785 48.3916C163.688 48.2929 163.555 48.2365 163.416 48.2349Z" fill="#3F3D56"/>
<path d="M163.416 50.2166H156.445C156.307 50.2198 156.176 50.2768 156.079 50.3754C155.983 50.474 155.929 50.6063 155.929 50.7442C155.929 50.882 155.983 51.0144 156.079 51.113C156.176 51.2116 156.307 51.2686 156.445 51.2718H163.416C163.555 51.2699 163.687 51.2134 163.785 51.1147C163.882 51.016 163.937 50.8829 163.937 50.7442C163.937 50.6055 163.882 50.4724 163.785 50.3737C163.687 50.275 163.555 50.2185 163.416 50.2166Z" fill="#3F3D56"/>
<path d="M57.9208 66.0571H55.4157C54.6562 66.0571 54.0405 66.6728 54.0405 67.4323C54.0405 68.1918 54.6562 68.8075 55.4157 68.8075H57.9208C58.6803 68.8075 59.296 68.1918 59.296 67.4323C59.296 66.6728 58.6803 66.0571 57.9208 66.0571Z" fill="#E6E6E6"/>
<path d="M86.5712 66.0571H84.0661C83.3066 66.0571 82.6909 66.6728 82.6909 67.4323C82.6909 68.1918 83.3066 68.8075 84.0661 68.8075H86.5712C87.3307 68.8075 87.9464 68.1918 87.9464 67.4323C87.9464 66.6728 87.3307 66.0571 86.5712 66.0571Z" fill="#E6E6E6"/>
<path d="M94.6889 66.0571H92.1838C91.4243 66.0571 90.8086 66.6728 90.8086 67.4323C90.8086 68.1918 91.4243 68.8075 92.1838 68.8075H94.6889C95.4484 68.8075 96.0641 68.1918 96.0641 67.4323C96.0641 66.6728 95.4484 66.0571 94.6889 66.0571Z" fill="#E6E6E6"/>
<path d="M78.7782 65.8279H63.2087C62.4492 65.8279 61.8335 66.4436 61.8335 67.2031C61.8335 67.9626 62.4492 68.5783 63.2087 68.5783H78.7782C79.5378 68.5783 80.1535 67.9626 80.1535 67.2031C80.1535 66.4436 79.5378 65.8279 78.7782 65.8279Z" fill="#E6E6E6"/>
<path d="M116.979 65.8279H101.409C100.65 65.8279 100.034 66.4436 100.034 67.2031C100.034 67.9626 100.65 68.5783 101.409 68.5783H116.979C117.738 68.5783 118.354 67.9626 118.354 67.2031C118.354 66.4436 117.738 65.8279 116.979 65.8279Z" fill="#E6E6E6"/>
<path d="M65.561 72.2646H63.0559C62.2964 72.2646 61.6807 72.8803 61.6807 73.6398C61.6807 74.3994 62.2964 75.0151 63.0559 75.0151H65.561C66.3205 75.0151 66.9362 74.3994 66.9362 73.6398C66.9362 72.8803 66.3205 72.2646 65.561 72.2646Z" fill="#E6E6E6"/>
<path d="M94.2114 72.2646H91.7063C90.9468 72.2646 90.3311 72.8803 90.3311 73.6398C90.3311 74.3994 90.9468 75.0151 91.7063 75.0151H94.2114C94.9709 75.0151 95.5865 74.3994 95.5865 73.6398C95.5865 72.8803 94.9709 72.2646 94.2114 72.2646Z" fill="#E6E6E6"/>
<path d="M102.329 72.2646H99.8239C99.0644 72.2646 98.4487 72.8803 98.4487 73.6398C98.4487 74.3994 99.0644 75.0151 99.8239 75.0151H102.329C103.089 75.0151 103.704 74.3994 103.704 73.6398C103.704 72.8803 103.089 72.2646 102.329 72.2646Z" fill="#E6E6E6"/>
<path d="M86.4184 72.0354H70.8488C70.0893 72.0354 69.4736 72.6511 69.4736 73.4106C69.4736 74.1701 70.0893 74.7858 70.8488 74.7858H86.4184C87.1779 74.7858 87.7936 74.1701 87.7936 73.4106C87.7936 72.6511 87.1779 72.0354 86.4184 72.0354Z" fill="#E6E6E6"/>
<path d="M124.619 72.0354H109.05C108.29 72.0354 107.674 72.6511 107.674 73.4106C107.674 74.1701 108.29 74.7858 109.05 74.7858H124.619C125.379 74.7858 125.994 74.1701 125.994 73.4106C125.994 72.6511 125.379 72.0354 124.619 72.0354Z" fill="#E6E6E6"/>
<path d="M73.2011 78.4723H70.696C69.9365 78.4723 69.3208 79.088 69.3208 79.8475C69.3208 80.607 69.9365 81.2227 70.696 81.2227H73.2011C73.9606 81.2227 74.5763 80.607 74.5763 79.8475C74.5763 79.088 73.9606 78.4723 73.2011 78.4723Z" fill="#E6E6E6"/>
<path d="M101.851 78.4723H99.3464C98.5869 78.4723 97.9712 79.088 97.9712 79.8475C97.9712 80.607 98.5869 81.2227 99.3464 81.2227H101.851C102.611 81.2227 103.227 80.607 103.227 79.8475C103.227 79.088 102.611 78.4723 101.851 78.4723Z" fill="#E6E6E6"/>
<path d="M109.969 78.4723H107.464C106.705 78.4723 106.089 79.088 106.089 79.8475C106.089 80.607 106.705 81.2227 107.464 81.2227H109.969C110.729 81.2227 111.344 80.607 111.344 79.8475C111.344 79.088 110.729 78.4723 109.969 78.4723Z" fill="#E6E6E6"/>
<path d="M94.0585 78.243H78.489C77.7295 78.243 77.1138 78.8587 77.1138 79.6182C77.1138 80.3777 77.7295 80.9935 78.489 80.9935H94.0585C94.818 80.9935 95.4337 80.3777 95.4337 79.6182C95.4337 78.8587 94.818 78.243 94.0585 78.243Z" fill="#E6E6E6"/>
<path d="M132.259 78.243H116.69C115.93 78.243 115.314 78.8587 115.314 79.6182C115.314 80.3777 115.93 80.9935 116.69 80.9935H132.259C133.019 80.9935 133.634 80.3777 133.634 79.6182C133.634 78.8587 133.019 78.243 132.259 78.243Z" fill="#E6E6E6"/>
<path d="M80.8412 84.6799H78.3361C77.5766 84.6799 76.9609 85.2956 76.9609 86.0551C76.9609 86.8146 77.5766 87.4303 78.3361 87.4303H80.8412C81.6007 87.4303 82.2164 86.8146 82.2164 86.0551C82.2164 85.2956 81.6007 84.6799 80.8412 84.6799Z" fill="#E6E6E6"/>
<path d="M109.492 84.6799H106.987C106.227 84.6799 105.611 85.2956 105.611 86.0551C105.611 86.8146 106.227 87.4303 106.987 87.4303H109.492C110.251 87.4303 110.867 86.8146 110.867 86.0551C110.867 85.2956 110.251 84.6799 109.492 84.6799Z" fill="#E6E6E6"/>
<path d="M117.609 84.6799H115.104C114.345 84.6799 113.729 85.2956 113.729 86.0551C113.729 86.8146 114.345 87.4303 115.104 87.4303H117.609C118.369 87.4303 118.984 86.8146 118.984 86.0551C118.984 85.2956 118.369 84.6799 117.609 84.6799Z" fill="#E6E6E6"/>
<path d="M101.699 84.4507H86.1291C85.3696 84.4507 84.7539 85.0664 84.7539 85.8259C84.7539 86.5854 85.3696 87.2011 86.1291 87.2011H101.699C102.458 87.2011 103.074 86.5854 103.074 85.8259C103.074 85.0664 102.458 84.4507 101.699 84.4507Z" fill="#E6E6E6"/>
<path d="M86.5712 109.364H84.0661C83.3066 109.364 82.6909 109.98 82.6909 110.739C82.6909 111.499 83.3066 112.114 84.0661 112.114H86.5712C87.3307 112.114 87.9464 111.499 87.9464 110.739C87.9464 109.98 87.3307 109.364 86.5712 109.364Z" fill="#E6E6E6"/>
<path d="M94.6889 109.364H92.1838C91.4243 109.364 90.8086 109.98 90.8086 110.739C90.8086 111.499 91.4243 112.114 92.1838 112.114H94.6889C95.4484 112.114 96.0641 111.499 96.0641 110.739C96.0641 109.98 95.4484 109.364 94.6889 109.364Z" fill="#E6E6E6"/>
<path d="M116.979 109.593H101.409C100.65 109.593 100.034 110.209 100.034 110.968C100.034 111.728 100.65 112.344 101.409 112.344H116.979C117.738 112.344 118.354 111.728 118.354 110.968C118.354 110.209 117.738 109.593 116.979 109.593Z" fill="#E6E6E6"/>
<path d="M57.9208 109.364H55.4157C54.6562 109.364 54.0405 109.98 54.0405 110.739C54.0405 111.499 54.6562 112.114 55.4157 112.114H57.9208C58.6803 112.114 59.296 111.499 59.296 110.739C59.296 109.98 58.6803 109.364 57.9208 109.364Z" fill="#E6E6E6"/>
<path d="M78.7782 109.593H63.2087C62.4492 109.593 61.8335 110.209 61.8335 110.968C61.8335 111.728 62.4492 112.344 63.2087 112.344H78.7782C79.5378 112.344 80.1535 111.728 80.1535 110.968C80.1535 110.209 79.5378 109.593 78.7782 109.593Z" fill="#E6E6E6"/>
<path d="M65.561 103.156H63.0559C62.2964 103.156 61.6807 103.772 61.6807 104.532C61.6807 105.291 62.2964 105.907 63.0559 105.907H65.561C66.3205 105.907 66.9362 105.291 66.9362 104.532C66.9362 103.772 66.3205 103.156 65.561 103.156Z" fill="#E6E6E6"/>
<path d="M94.2114 103.156H91.7063C90.9468 103.156 90.3311 103.772 90.3311 104.532C90.3311 105.291 90.9468 105.907 91.7063 105.907H94.2114C94.9709 105.907 95.5865 105.291 95.5865 104.532C95.5865 103.772 94.9709 103.156 94.2114 103.156Z" fill="#E6E6E6"/>
<path d="M102.329 103.156H99.8239C99.0644 103.156 98.4487 103.772 98.4487 104.532C98.4487 105.291 99.0644 105.907 99.8239 105.907H102.329C103.089 105.907 103.704 105.291 103.704 104.532C103.704 103.772 103.089 103.156 102.329 103.156Z" fill="#E6E6E6"/>
<path d="M86.4184 103.386H70.8488C70.0893 103.386 69.4736 104.001 69.4736 104.761C69.4736 105.52 70.0893 106.136 70.8488 106.136H86.4184C87.1779 106.136 87.7936 105.52 87.7936 104.761C87.7936 104.001 87.1779 103.386 86.4184 103.386Z" fill="#E6E6E6"/>
<path d="M73.2011 96.9489H70.696C69.9365 96.9489 69.3208 97.5646 69.3208 98.3241C69.3208 99.0836 69.9365 99.6993 70.696 99.6993H73.2011C73.9606 99.6993 74.5763 99.0836 74.5763 98.3241C74.5763 97.5646 73.9606 96.9489 73.2011 96.9489Z" fill="#E6E6E6"/>
<path d="M101.851 96.9489H99.3464C98.5869 96.9489 97.9712 97.5646 97.9712 98.3241C97.9712 99.0836 98.5869 99.6993 99.3464 99.6993H101.851C102.611 99.6993 103.227 99.0836 103.227 98.3241C103.227 97.5646 102.611 96.9489 101.851 96.9489Z" fill="#E6E6E6"/>
<path d="M109.969 96.9489H107.464C106.705 96.9489 106.089 97.5646 106.089 98.3241C106.089 99.0836 106.705 99.6993 107.464 99.6993H109.969C110.729 99.6993 111.344 99.0836 111.344 98.3241C111.344 97.5646 110.729 96.9489 109.969 96.9489Z" fill="#E6E6E6"/>
<path d="M94.0585 97.1781H78.489C77.7295 97.1781 77.1138 97.7938 77.1138 98.5533C77.1138 99.3128 77.7295 99.9285 78.489 99.9285H94.0585C94.818 99.9285 95.4337 99.3128 95.4337 98.5533C95.4337 97.7938 94.818 97.1781 94.0585 97.1781Z" fill="#E6E6E6"/>
<path d="M80.8412 90.7412H78.3361C77.5766 90.7412 76.9609 91.3569 76.9609 92.1164C76.9609 92.8759 77.5766 93.4916 78.3361 93.4916H80.8412C81.6007 93.4916 82.2164 92.8759 82.2164 92.1164C82.2164 91.3569 81.6007 90.7412 80.8412 90.7412Z" fill="#E6E6E6"/>
<path d="M109.492 90.7412H106.987C106.227 90.7412 105.611 91.3569 105.611 92.1164C105.611 92.8759 106.227 93.4916 106.987 93.4916H109.492C110.251 93.4916 110.867 92.8759 110.867 92.1164C110.867 91.3569 110.251 90.7412 109.492 90.7412Z" fill="#E6E6E6"/>
<path d="M117.609 90.7412H115.104C114.345 90.7412 113.729 91.3569 113.729 92.1164C113.729 92.8759 114.345 93.4916 115.104 93.4916H117.609C118.369 93.4916 118.984 92.8759 118.984 92.1164C118.984 91.3569 118.369 90.7412 117.609 90.7412Z" fill="#E6E6E6"/>
<path d="M101.699 90.9705H86.1291C85.3696 90.9705 84.7539 91.5862 84.7539 92.3457C84.7539 93.1052 85.3696 93.7209 86.1291 93.7209H101.699C102.458 93.7209 103.074 93.1052 103.074 92.3457C103.074 91.5862 102.458 90.9705 101.699 90.9705Z" fill="#E6E6E6"/>
<path d="M170.789 199.042C170.498 199.19 170.202 199.338 169.911 199.481C162.366 203.253 156.33 205.397 148.074 207.747C147.377 199.963 146.704 186.283 146.049 177.802C145.878 175.601 145.706 173.753 145.539 172.449C145.496 171.756 145.355 171.073 145.118 170.42L145.147 172.449L145.219 177.802L145.634 208.415C135.364 211.132 124.814 212.653 114.195 212.947C113.641 212.961 113.097 212.971 112.571 212.98C112.385 212.985 112.204 212.99 112.022 212.99C111.425 212.994 110.833 212.999 110.236 212.999C99.0455 213.008 87.8951 211.656 77.0304 208.974C77.2644 201.272 77.4983 187.744 77.7227 177.802C77.7705 175.859 77.8135 174.049 77.8612 172.449C77.952 169.03 78.0475 166.566 78.1382 165.74C78.0578 165.887 77.9952 166.042 77.952 166.203C77.5097 168.262 77.2082 170.349 77.0495 172.449C76.8823 174.049 76.7152 175.859 76.5481 177.802C75.6599 188.131 74.7336 202.174 73.7785 208.129C68.0941 206.577 62.5162 204.658 57.08 202.384C54.215 201.19 51.4009 199.903 48.6377 198.521C49.163 195.083 49.7121 191.23 50.2755 187.233C50.7149 184.134 51.1685 180.949 51.6317 177.802C52.3479 172.941 53.0833 168.176 53.8282 163.978C54.9169 157.847 56.0343 152.919 57.1421 150.656C58.1926 148.507 59.2432 146.387 60.2603 144.357C60.6136 143.646 60.967 142.944 61.3108 142.261C61.392 142.099 61.4731 141.941 61.5543 141.784C62.2849 140.346 62.9916 138.971 63.6649 137.682C64.2427 136.579 64.7918 135.538 65.3123 134.578C66.5729 132.248 67.6426 130.39 68.4352 129.216C71.7492 124.189 76.6826 120.447 82.4167 118.61L82.5599 118.572L82.6602 118.615L92.4252 115.616L93.853 115.177L94.8128 114.881L98.1936 112.307L100.032 110.908L101.756 109.595L105.127 107.031L125.999 108.315L130.062 118.099L139.164 121.427L139.321 121.356L139.46 121.298L139.603 121.337C145.336 123.175 150.269 126.917 153.585 131.942C154.033 132.615 154.578 133.504 155.194 134.578C155.719 135.49 156.292 136.531 156.913 137.682C157.796 139.32 158.761 141.168 159.783 143.168C160.007 143.608 160.236 144.057 160.465 144.51C160.89 145.351 161.322 146.208 161.76 147.084C162.777 149.113 163.827 151.233 164.878 153.387C165.79 155.254 166.711 159.093 167.619 163.978C168.368 168.037 169.113 172.822 169.834 177.802C170.78 184.258 169.772 191.989 170.627 197.929C170.679 198.306 170.737 198.674 170.789 199.042Z" fill="#3F3D56"/>
<path d="M110.53 99.2207C123.937 99.2207 134.805 88.3525 134.805 74.9459C134.805 61.5392 123.937 50.671 110.53 50.671C97.1236 50.671 86.2554 61.5392 86.2554 74.9459C86.2554 88.3525 97.1236 99.2207 110.53 99.2207Z" fill="#A0616A"/>
<path d="M150.562 42.777C150.082 41.6568 149.444 40.6115 148.666 39.6732C144.98 35.1703 138.276 33.1886 131.395 38.5176C130.07 38.2217 128.689 38.3011 127.408 38.7468C126.802 38.966 126.235 39.2785 125.727 39.6732C124.685 40.4859 123.872 41.5555 123.368 42.777C123.098 43.4221 122.921 44.1022 122.843 44.7969C121.142 43.9131 119.341 43.235 117.48 42.777C112.913 41.641 108.137 41.641 103.57 42.777C102.107 43.1472 100.697 43.7058 99.3777 44.4387C97.143 45.728 95.8585 47.3563 95.6293 49.1661C92.4061 49.3475 89.054 51.0427 86.5566 53.8218C86.2749 54.1322 86.0027 54.4569 85.7496 54.7911C83.6495 57.5391 82.5208 60.9066 82.5408 64.3652V64.9716H83.1472C84.8088 64.97 86.4548 65.2911 87.9939 65.9171C88.9912 66.3177 89.9358 66.8389 90.8065 67.469C91.3761 67.8731 91.914 68.3201 92.4157 68.806C93.5788 69.932 94.5641 71.2281 95.338 72.6499C97.3219 76.243 98.0098 80.4091 97.2863 84.4492C97.1203 85.3844 96.8775 86.3043 96.5604 87.1996C96.1093 88.4771 95.515 89.6993 94.7889 90.843C94.7602 90.886 94.7363 90.929 94.7077 90.972C94.3878 91.4829 94.0822 92.0034 93.7957 92.5286C93.5808 92.9202 93.3802 93.3213 93.194 93.7224C92.6497 94.8387 92.19 95.9944 91.8188 97.1796C91.1542 99.2757 90.7626 101.449 90.6537 103.645C90.6202 104.228 90.6107 104.81 90.6298 105.393C90.6582 106.894 90.8228 108.39 91.1216 109.862C91.1646 110.063 91.2076 110.259 91.2505 110.459L91.5991 111.982L92.4252 115.616L92.9982 118.118L93.5283 120.439L94.3114 119.317C94.5788 118.935 95.2521 117.76 96.1546 116.098C96.7514 115.015 97.4438 113.72 98.1935 112.307C99.2393 110.325 100.385 108.115 101.507 105.908C101.961 105.015 102.41 104.127 102.844 103.258C103.666 101.611 104.439 100.021 105.103 98.6073C105.714 97.3037 106.235 96.1482 106.622 95.2218C106.741 95.8282 106.841 96.4442 106.918 97.065C107.004 97.6953 107.066 98.3352 107.099 98.975C107.109 99.0705 107.113 99.1708 107.118 99.2663L107.137 99.6579L107.142 99.7725L107.648 99.8393C110.568 100.152 113.511 100.174 116.434 99.9062H116.439C120.312 99.6146 124.112 98.6936 127.689 97.1796C129.721 96.2982 131.618 95.1343 133.324 93.7225C134.121 93.0625 134.865 92.3408 135.549 91.5641C135.721 91.3683 135.888 91.1726 136.05 90.972C136.995 89.8106 137.804 88.5449 138.462 87.1997C138.902 86.3119 139.276 85.3925 139.579 84.4492C141.413 78.8958 141.308 71.9671 139.264 63.7349C139.816 63.6286 140.345 63.4248 140.825 63.1332C142.325 62.2308 143.366 60.4401 143.691 58.2531L144.206 58.3916C146.034 57.54 147.663 56.3133 148.986 54.7912C149.248 54.4812 149.494 54.1577 149.721 53.8218C152.057 50.3837 152.076 46.258 150.562 42.777Z" fill="#2F2E41"/>
<path opacity="0.2" d="M70.7559 163.957L74.8132 148.299L78.396 161.81L70.7559 163.957Z" fill="black"/>
<path d="M178.726 153.755C177.274 173.753 178.778 182.558 170.766 199.046C163.475 202.615 155.881 205.526 148.074 207.747C147.263 207.976 146.449 208.199 145.634 208.415C135.364 211.132 124.814 212.653 114.195 212.947C113.641 212.961 113.097 212.971 112.572 212.98C112.385 212.985 112.204 212.99 112.022 212.99C111.426 212.994 110.833 212.999 110.237 212.999C99.0457 213.007 87.8954 211.656 77.0306 208.974C75.9419 208.706 74.858 208.425 73.7788 208.129C68.0943 206.577 62.5165 204.658 57.0803 202.384C54.2153 201.19 51.4011 199.903 48.638 198.521C48.0124 198.206 47.3869 197.891 46.7709 197.566C43.605 191.998 41.8048 185.227 41.7666 177.091C43.9584 163.071 173.884 141.664 178.726 153.755Z" fill="#2F2E41"/>
<path opacity="0.2" d="M178.721 157.18C178.796 155.942 178.878 154.663 178.975 153.331C174.133 141.24 44.2079 162.647 42.0161 176.667C42.0221 177.952 42.0771 179.2 42.1695 180.417C47.4773 166.58 170.908 146.234 178.721 157.18Z" fill="black"/>
<path d="M50.1159 100.38C50.1475 99.9466 50.086 99.512 49.9356 99.1048C49.7852 98.6976 49.5493 98.3274 49.2437 98.019C48.9382 97.7107 48.5702 97.4713 48.1644 97.3171C47.7586 97.1629 47.3246 97.0974 46.8914 97.1251C46.7299 97.1312 46.5694 97.1513 46.4114 97.1851L27.4247 101.474C27.0004 101.577 26.6024 101.768 26.2563 102.034C25.9101 102.3 25.6235 102.636 25.415 103.019C25.1365 103.03 24.86 103.07 24.5901 103.139C23.9993 103.273 23.4406 103.522 22.946 103.872C22.4514 104.222 22.0305 104.665 21.7074 105.178C21.3843 105.69 21.1653 106.262 21.0629 106.859C20.9606 107.456 20.9768 108.067 21.1107 108.658C21.2446 109.249 21.4936 109.808 21.8435 110.302C22.1933 110.797 22.6371 111.218 23.1496 111.541C24.1846 112.193 25.4365 112.408 26.6298 112.138C27.309 111.98 27.9444 111.673 28.4894 111.238L34.9234 129.355C35.2448 129.922 35.7413 130.371 36.3387 130.633C36.9361 130.895 37.6023 130.957 38.2378 130.809L50.5808 128.02C51.2113 127.872 51.7789 127.528 52.2019 127.038C52.625 126.548 52.8817 125.936 52.9353 125.29L50.1159 100.38ZM26.3448 110.848C25.4926 111.04 24.5989 110.886 23.8598 110.421C23.1206 109.955 22.5962 109.215 22.4017 108.364C22.2071 107.512 22.3582 106.618 22.8219 105.878C23.2856 105.137 24.0239 104.611 24.8751 104.414C24.935 104.399 24.9951 104.414 25.0551 104.399C25.0505 104.945 25.1902 105.483 25.46 105.959L27.8145 110.068C27.4047 110.457 26.8965 110.726 26.3448 110.848Z" fill="#2F2E41"/>
<path d="M46.8912 97.1251C47.0712 99.5248 42.9619 102.284 37.4579 103.379C32.4036 104.414 27.8744 103.694 26.5996 101.804C26.8558 101.652 27.1341 101.541 27.4246 101.474L46.4113 97.1852C46.5692 97.1513 46.7298 97.1312 46.8912 97.1251Z" fill="#3F3D56"/>
<path d="M33.7599 158.041L44.4245 152.708L35.5374 128.713L33.1952 116.612C32.8909 115.04 32.1793 113.575 31.1316 112.364C30.0839 111.153 28.7367 110.238 27.2246 109.711C25.7126 109.184 24.0886 109.063 22.5151 109.36C20.9416 109.657 19.4735 110.362 18.2577 111.404C16.456 112.948 15.3247 115.132 15.1027 117.494C14.8806 119.857 15.5851 122.213 17.0675 124.066L25.7616 134.934L33.7599 158.041Z" fill="#A0616A"/>
<path d="M44.4244 148.265L30.2051 155.374L40.9961 189.186C41.771 191.614 43.1601 193.801 45.0287 195.534C46.8974 197.267 49.1822 198.488 51.6616 199.079C54.7187 199.807 57.9283 199.542 60.8249 198.323C63.7215 197.104 66.1546 194.994 67.7715 192.299L96.3861 143.253C98.4139 139.873 99.0399 135.834 98.1302 131.999C97.2205 128.164 94.8474 124.837 91.5176 122.728C89.7268 121.594 87.7172 120.85 85.6196 120.544C83.5221 120.237 81.3836 120.376 79.3433 120.951C77.303 121.526 75.4066 122.524 73.7776 123.881C72.1485 125.237 70.8234 126.921 69.8883 128.824L52.4229 166.039L44.4244 148.265Z" fill="#3F3D56"/>
<path d="M40.0269 117.708C40.0005 117.708 39.9743 117.704 39.9493 117.695L36.8448 116.626C36.8073 116.614 36.7736 116.592 36.7467 116.563C36.7198 116.533 36.7007 116.498 36.6909 116.46C36.6812 116.421 36.6812 116.381 36.6909 116.342C36.7006 116.304 36.7198 116.269 36.7466 116.239L39.0556 113.726C39.0768 113.702 39.1023 113.683 39.1307 113.67C39.1592 113.657 39.19 113.649 39.2214 113.648C39.2528 113.646 39.2841 113.651 39.3137 113.662C39.3432 113.673 39.3703 113.689 39.3935 113.71C39.4166 113.732 39.4354 113.757 39.4486 113.786C39.4618 113.814 39.4693 113.845 39.4706 113.876C39.4718 113.908 39.4669 113.939 39.456 113.969C39.4452 113.998 39.4286 114.025 39.4072 114.048L37.3449 116.294L40.1046 117.244C40.158 117.262 40.2032 117.299 40.2321 117.348C40.261 117.396 40.2717 117.453 40.2624 117.509C40.2531 117.565 40.2243 117.615 40.1812 117.652C40.1381 117.688 40.0834 117.708 40.0269 117.708Z" fill="#3498DB"/>
<path d="M44.2821 116.837C44.2346 116.837 44.1881 116.823 44.1487 116.796C44.1092 116.77 44.0786 116.732 44.0608 116.688C44.043 116.644 44.0387 116.595 44.0485 116.549C44.0584 116.502 44.0819 116.46 44.1161 116.427L46.2145 114.398L43.3957 113.236C43.3666 113.224 43.3402 113.207 43.318 113.185C43.2957 113.163 43.278 113.136 43.266 113.107C43.2539 113.078 43.2476 113.047 43.2476 113.016C43.2475 112.985 43.2536 112.954 43.2656 112.925C43.2775 112.896 43.2951 112.869 43.3172 112.847C43.3394 112.825 43.3657 112.807 43.3947 112.795C43.4237 112.783 43.4547 112.777 43.4861 112.777C43.5175 112.777 43.5485 112.783 43.5775 112.795L46.7336 114.096C46.7702 114.111 46.8025 114.135 46.8276 114.165C46.8527 114.196 46.8697 114.233 46.8772 114.272C46.8846 114.31 46.8823 114.351 46.8703 114.388C46.8583 114.426 46.8371 114.46 46.8086 114.488L44.4481 116.77C44.4036 116.813 44.3441 116.837 44.2821 116.837Z" fill="#3498DB"/>
<path d="M40.6783 119.169C40.6545 119.169 40.6308 119.165 40.6081 119.158C40.5781 119.149 40.5503 119.134 40.5261 119.114C40.5019 119.094 40.4819 119.069 40.4672 119.042C40.4525 119.014 40.4435 118.984 40.4405 118.952C40.4376 118.921 40.4408 118.89 40.45 118.86L42.6536 111.697C42.6725 111.637 42.7145 111.586 42.7704 111.557C42.8263 111.527 42.8916 111.521 42.952 111.54C43.0125 111.559 43.063 111.6 43.0926 111.656C43.1223 111.712 43.1286 111.777 43.1101 111.838L40.9066 119C40.8915 119.049 40.8612 119.092 40.8201 119.122C40.779 119.152 40.7294 119.169 40.6783 119.169Z" fill="#3498DB"/>
</svg>
