<svg width="80" height="80" viewBox="0 0 80 80" fill="none" xmlns="http://www.w3.org/2000/svg">
<path d="M13.3334 20.0001C15.1015 20.0001 16.7972 19.2977 18.0475 18.0475C19.2977 16.7972 20.0001 15.1015 20.0001 13.3334C20.0001 11.5653 19.2977 9.86961 18.0475 8.61937C16.7972 7.36913 15.1015 6.66675 13.3334 6.66675C11.5653 6.66675 9.86961 7.36913 8.61937 8.61937C7.36913 9.86961 6.66675 11.5653 6.66675 13.3334C6.66675 15.1015 7.36913 16.7972 8.61937 18.0475C9.86961 19.2977 11.5653 20.0001 13.3334 20.0001ZM16.6667 70.0001C19.3189 70.0001 21.8625 68.9465 23.7378 67.0712C25.6132 65.1958 26.6667 62.6522 26.6667 60.0001C26.6667 57.3479 25.6132 54.8044 23.7378 52.929C21.8625 51.0537 19.3189 50.0001 16.6667 50.0001C14.0146 50.0001 11.471 51.0537 9.59568 52.929C7.72032 54.8044 6.66675 57.3479 6.66675 60.0001C6.66675 62.6522 7.72032 65.1958 9.59568 67.0712C11.471 68.9465 14.0146 70.0001 16.6667 70.0001ZM63.3334 73.3334C65.9856 73.3334 68.5291 72.2799 70.4045 70.4045C72.2799 68.5291 73.3334 65.9856 73.3334 63.3334C73.3334 60.6813 72.2799 58.1377 70.4045 56.2623C68.5291 54.387 65.9856 53.3334 63.3334 53.3334C60.6813 53.3334 58.1377 54.387 56.2623 56.2623C54.387 58.1377 53.3334 60.6813 53.3334 63.3334C53.3334 65.9856 54.387 68.5291 56.2623 70.4045C58.1377 72.2799 60.6813 73.3334 63.3334 73.3334ZM36.6667 46.6667C40.203 46.6667 43.5944 45.262 46.0948 42.7615C48.5953 40.261 50.0001 36.8696 50.0001 33.3334C50.0001 29.7972 48.5953 26.4058 46.0948 23.9053C43.5944 21.4048 40.203 20.0001 36.6667 20.0001C33.1305 20.0001 29.7391 21.4048 27.2387 23.9053C24.7382 26.4058 23.3334 29.7972 23.3334 33.3334C23.3334 36.8696 24.7382 40.261 27.2387 42.7615C29.7391 45.262 33.1305 46.6667 36.6667 46.6667ZM56.6668 20.0001C58.4349 20.0001 60.1306 19.2977 61.3808 18.0475C62.631 16.7972 63.3334 15.1015 63.3334 13.3334C63.3334 11.5653 62.631 9.86961 61.3808 8.61937C60.1306 7.36913 58.4349 6.66675 56.6668 6.66675C54.8986 6.66675 53.2029 7.36913 51.9527 8.61937C50.7025 9.86961 50.0001 11.5653 50.0001 13.3334C50.0001 15.1015 50.7025 16.7972 51.9527 18.0475C53.2029 19.2977 54.8986 20.0001 56.6668 20.0001Z" stroke="#3498DB" stroke-width="4" stroke-linecap="round" stroke-linejoin="round"/>
<path d="M18.3335 18.3335L25.0002 25.0002M50.0002 20.0002L46.6668 23.3335M56.6668 55.8335L46.6668 43.3335M23.3335 51.6668L30.0002 45.0002" stroke="#3498DB" stroke-width="4" stroke-linecap="round" stroke-linejoin="round"/>
</svg>
