<svg width="276" height="216" viewBox="0 0 276 216" fill="none" xmlns="http://www.w3.org/2000/svg">
<g clip-path="url(#clip0_576_451)">
<path d="M138 187C214.215 187 276 183.443 276 179.055C276 174.668 214.215 171.111 138 171.111C61.7847 171.111 0 174.668 0 179.055C0 183.443 61.7847 187 138 187Z" fill="#F2F2F2"/>
<path d="M251.266 28H43.9509V34.6019H251.266V28Z" fill="#F2F2F2"/>
<path d="M49.4985 32.9122C50.4412 32.9122 51.2055 32.1473 51.2055 31.2036C51.2055 30.26 50.4412 29.495 49.4985 29.495C48.5557 29.495 47.7915 30.26 47.7915 31.2036C47.7915 32.1473 48.5557 32.9122 49.4985 32.9122Z" fill="#3498DB"/>
<path d="M55.0463 32.9122C55.9891 32.9122 56.7533 32.1473 56.7533 31.2036C56.7533 30.26 55.9891 29.495 55.0463 29.495C54.1036 29.495 53.3394 30.26 53.3394 31.2036C53.3394 32.1473 54.1036 32.9122 55.0463 32.9122Z" fill="#3498DB"/>
<path d="M60.5939 32.9122C61.5367 32.9122 62.3009 32.1473 62.3009 31.2036C62.3009 30.26 61.5367 29.495 60.5939 29.495C59.6512 29.495 58.887 30.26 58.887 31.2036C58.887 32.1473 59.6512 32.9122 60.5939 32.9122Z" fill="#3498DB"/>
<path d="M44.0976 132.415L43.9507 132.541V177.077H251.266V98.8491L248.795 99.0367L44.0976 132.415Z" fill="#3F3D56"/>
<path d="M116.805 72.1622H58.9124V74.4989H116.805V72.1622Z" fill="#3F3D56"/>
<path d="M116.805 77.3027H58.9124V79.6394H116.805V77.3027Z" fill="#3F3D56"/>
<path d="M78.5212 82.4434H58.9124V84.78H78.5212V82.4434Z" fill="#3F3D56"/>
<path d="M234.867 137.032H176.974V139.369H234.867V137.032Z" fill="white"/>
<path d="M234.867 142.173H176.974V144.51H234.867V142.173Z" fill="white"/>
<path d="M196.583 147.314H176.974V149.65H196.583V147.314Z" fill="white"/>
<path d="M141.004 174.922C142.262 174.922 143.282 173.902 143.282 172.643C143.282 171.384 142.262 170.363 141.004 170.363C139.747 170.363 138.727 171.384 138.727 172.643C138.727 173.902 139.747 174.922 141.004 174.922Z" fill="#F2F2F2"/>
<path d="M147.609 175.15C148.866 175.15 149.886 174.13 149.886 172.871C149.886 171.612 148.866 170.591 147.609 170.591C146.351 170.591 145.331 171.612 145.331 172.871C145.331 174.13 146.351 175.15 147.609 175.15Z" fill="#F2F2F2"/>
<path d="M154.213 175.378C155.47 175.378 156.49 174.358 156.49 173.099C156.49 171.84 155.47 170.819 154.213 170.819C152.955 170.819 151.935 171.84 151.935 173.099C151.935 174.358 152.955 175.378 154.213 175.378Z" fill="#F2F2F2"/>
<path d="M147.629 174.694C148.636 174.694 149.451 173.878 149.451 172.871C149.451 171.864 148.636 171.047 147.629 171.047C146.623 171.047 145.808 171.864 145.808 172.871C145.808 173.878 146.623 174.694 147.629 174.694Z" fill="#3F3D56"/>
<path d="M97.6121 98.9081H78.0032V103.386H97.6121V98.9081Z" fill="#3F3D56"/>
<path d="M214.166 159.504H194.557V163.982H214.166V159.504Z" fill="white"/>
<path opacity="0.3" d="M87.918 114.748C95.4095 114.748 101.483 108.67 101.483 101.171C101.483 93.6723 95.4095 87.5935 87.918 87.5935C80.4266 87.5935 74.3535 93.6723 74.3535 101.171C74.3535 108.67 80.4266 114.748 87.918 114.748Z" fill="#3498DB"/>
<path opacity="0.3" d="M87.918 110.223C92.9123 110.223 96.961 106.17 96.961 101.171C96.961 96.1719 92.9123 92.1194 87.918 92.1194C82.9237 92.1194 78.875 96.1719 78.875 101.171C78.875 106.17 82.9237 110.223 87.918 110.223Z" fill="#3498DB"/>
<path d="M87.918 107.457C91.3863 107.457 94.1979 104.643 94.1979 101.171C94.1979 97.6994 91.3863 94.8851 87.918 94.8851C84.4498 94.8851 81.6382 97.6994 81.6382 101.171C81.6382 104.643 84.4498 107.457 87.918 107.457Z" fill="#3498DB"/>
<path opacity="0.3" d="M202.054 81.0993C209.546 81.0993 215.619 75.0205 215.619 67.5218C215.619 60.0232 209.546 53.9443 202.054 53.9443C194.563 53.9443 188.49 60.0232 188.49 67.5218C188.49 75.0205 194.563 81.0993 202.054 81.0993Z" fill="#3498DB"/>
<path opacity="0.3" d="M202.055 76.5735C207.049 76.5735 211.098 72.521 211.098 67.5219C211.098 62.5228 207.049 58.4702 202.055 58.4702C197.06 58.4702 193.012 62.5228 193.012 67.5219C193.012 72.521 197.06 76.5735 202.055 76.5735Z" fill="#3498DB"/>
<path d="M202.055 73.8077C205.523 73.8077 208.334 70.9934 208.334 67.5218C208.334 64.0502 205.523 61.236 202.055 61.236C198.586 61.236 195.775 64.0502 195.775 67.5218C195.775 70.9934 198.586 73.8077 202.055 73.8077Z" fill="#3498DB"/>
<path opacity="0.3" d="M204.472 175.344C211.964 175.344 218.037 169.265 218.037 161.767C218.037 154.268 211.964 148.189 204.472 148.189C196.981 148.189 190.908 154.268 190.908 161.767C190.908 169.265 196.981 175.344 204.472 175.344Z" fill="#3498DB"/>
<path opacity="0.3" d="M204.472 170.819C209.467 170.819 213.515 166.766 213.515 161.767C213.515 156.768 209.467 152.715 204.472 152.715C199.478 152.715 195.429 156.768 195.429 161.767C195.429 166.766 199.478 170.819 204.472 170.819Z" fill="#3498DB"/>
<path d="M204.472 168.053C207.941 168.053 210.752 165.238 210.752 161.767C210.752 158.295 207.941 155.481 204.472 155.481C201.004 155.481 198.192 158.295 198.192 161.767C198.192 165.238 201.004 168.053 204.472 168.053Z" fill="#3498DB"/>
<path d="M22.5879 55.4973L28.1709 55.714L28.4493 48.529L22.8663 48.3123L22.5879 55.4973Z" fill="#3498DB"/>
<path d="M48.051 73.4756C48.051 73.4756 55.7825 69.778 55.6588 72.9714C55.5351 76.1647 47.8655 78.2656 47.8655 78.2656L48.051 73.4756Z" fill="#FFB9B9"/>
<path d="M43.8091 100.495C43.8091 100.495 47.4567 109.431 48.8044 115.88C50.1521 122.328 52.2046 131.203 49.5645 137.497C46.9244 143.79 39.4182 162.288 39.3409 164.284C39.2636 166.28 39.9839 168.306 38.3887 168.244C36.7936 168.182 28.1132 165.447 27.7608 164.234C27.4084 163.021 30.7224 159.952 30.7224 159.952L38.9056 134.285L30.3676 117.563L24.2092 142.509L23.003 173.644C23.003 173.644 17.0831 171.815 16.2237 173.381C16.2237 173.381 13.5714 169.68 13.2345 168.068C12.8976 166.455 14.4871 135.735 14.4871 135.735C14.4871 135.735 9.05316 100.745 13.4398 100.915C17.8264 101.085 35.0082 90.5589 43.8091 100.495Z" fill="#2F2E41"/>
<path d="M38.4506 166.648C38.4506 166.648 42.497 175.6 42.8803 176.014C43.2637 176.429 45.9005 180.529 43.9066 180.451C41.9127 180.374 37.2046 178.193 33.7393 174.86C30.2739 171.527 25.7051 165.753 26.1193 165.37C26.5335 164.986 29.3714 163.897 29.3714 163.897L38.4506 166.648Z" fill="#2F2E41"/>
<path d="M22.2829 171.617C22.2829 171.617 22.527 175.624 23.2627 177.252C23.9984 178.879 23.9056 181.274 21.9117 181.197C19.9178 181.119 14.7646 180.12 14.7646 180.12C14.7646 180.12 14.4586 177.709 14.8728 177.326C15.2871 176.942 17.0523 172.613 16.3011 171.385C15.55 170.156 22.2829 171.617 22.2829 171.617Z" fill="#2F2E41"/>
<path d="M19.333 41.579C19.333 41.579 15.0823 48.21 13.4253 49.7447C11.7683 51.2795 16.43 54.6585 16.43 54.6585L24.7735 55.7819C24.7735 55.7819 24.6685 48.1823 25.0982 47.3995C25.5279 46.6166 19.333 41.579 19.333 41.579Z" fill="#FFB9B9"/>
<path d="M26.5852 50.2556C26.5852 50.2556 24.8664 53.387 23.2712 53.3251C21.6761 53.2632 13.4254 49.7448 13.073 48.5318C12.7206 47.3189 10.3401 57.2206 10.3401 57.2206L30.529 92.7837L35.4536 89.377L33.0674 68.4966L31.1077 57.2271L26.5852 50.2556Z" fill="#3498DB"/>
<path d="M12.3282 82.0831C13.1335 83.7694 13.6365 85.5279 13.5667 87.3281C13.5636 87.4079 13.5606 87.4878 13.5535 87.5674C13.3624 91.2618 12.0027 95.5345 11.5149 98.6417C11.161 100.871 11.2617 102.498 12.5649 102.88C15.7242 103.802 12.1042 104.461 24.3273 108.534C36.5504 112.606 38.6835 109.091 38.7144 108.292C38.7453 107.494 36.9834 101.429 37.3976 101.046C37.8119 100.662 43.1938 106.068 44.8198 105.331C46.4459 104.595 45.0054 100.541 45.0054 100.541C45.0054 100.541 41.3423 92.0041 41.4197 90.0083C41.497 88.0125 35.8709 78.5995 35.8709 78.5995L32.0443 53.6656C32.0443 53.6656 30.5729 50.4104 28.5944 49.9338C26.616 49.4573 24.9745 50.5928 24.9745 50.5928L28.2852 57.9171L31.7781 70.8451L31.1938 75.6196C31.1938 75.6196 27.1319 67.0669 24.4642 63.7652C21.7964 60.4636 16.1085 52.6473 16.1085 52.6473C16.1085 52.6473 14.7805 48.1623 15.783 46.8221C16.7856 45.4778 11.6014 45.2766 9.39103 50.7875C8.2195 53.7083 6.31746 58.0638 5.12594 62.1192C4.06419 65.7118 3.56265 69.0703 4.61454 70.9901C6.22224 73.9228 10.2664 77.7776 12.3282 82.0831Z" fill="#575A89"/>
<path opacity="0.1" d="M4.61454 70.99C6.22226 73.9228 10.2664 77.7776 12.3282 82.0831C12.8667 80.1411 13.5236 78.1319 13.5236 78.1319C13.5236 78.1319 16.0433 64.6377 8.59018 61.1503C7.35524 61.0307 6.12012 61.3762 5.12594 62.1191C4.06419 65.7118 3.56265 69.0703 4.61454 70.99Z" fill="black"/>
<path d="M34.2017 70.1396L40.5204 71.984L49.2936 72.3245L50.1962 79.955L35.7781 80.9945C35.7781 80.9945 32.1769 70.8606 34.2017 70.1396Z" fill="#575A89"/>
<path d="M23.8984 95.7959C23.8984 95.7959 32.3515 97.1997 30.4222 99.7459C28.4928 102.292 21.0044 99.6152 21.0044 99.6152L23.8984 95.7959Z" fill="#FFB9B9"/>
<path opacity="0.1" d="M13.5537 87.5674C13.3626 91.2618 12.0029 95.5345 11.5151 98.6417C14.208 101.193 16.7687 103.443 17.7338 103.48C19.7277 103.558 22.9334 103.282 24.1143 103.728C25.2952 104.174 25.9878 96.605 25.9878 96.605C25.9878 96.605 25.283 94.179 22.1391 92.8577C20.0171 91.9638 15.9494 89.5393 13.5537 87.5674Z" fill="black"/>
<path d="M8.68297 58.7553C8.68297 58.7553 1.9346 57.6938 2.29917 68.9014C2.66374 80.1089 1.58782 87.2629 4.30198 89.3671C7.01614 91.4713 15.8325 101.008 17.8264 101.085C19.8203 101.163 23.026 100.888 24.2069 101.333C25.3878 101.779 26.0804 94.2101 26.0804 94.2101C26.0804 94.2101 25.3756 91.7841 22.2317 90.4628C19.0879 89.1415 11.6811 84.4566 11.743 82.8599C11.8048 81.2633 13.6164 75.7369 13.6164 75.7369C13.6164 75.7369 16.1361 62.2427 8.68297 58.7553Z" fill="#575A89"/>
<path d="M25.284 51.3977C30.1329 51.3977 34.0638 47.4631 34.0638 42.6095C34.0638 37.7559 30.1329 33.8213 25.284 33.8213C20.435 33.8213 16.5042 37.7559 16.5042 42.6095C16.5042 47.4631 20.435 51.3977 25.284 51.3977Z" fill="#FFB9B9"/>
<path d="M31.1954 30.0135C31.4072 30.1961 31.6608 30.3235 31.9336 30.3843C32.0706 30.4088 32.2117 30.378 32.3261 30.2987C32.4404 30.2194 32.5188 30.098 32.5441 29.961C32.745 30.378 32.9716 30.8224 33.3817 31.0364C33.7919 31.2504 34.426 31.0709 34.4852 30.6118C34.545 30.9604 34.6991 31.286 34.9307 31.5532C35.1851 31.796 35.6466 31.8573 35.8687 31.5845C35.6891 32.567 35.8 33.5774 35.7436 34.5746C35.6872 35.5718 35.4215 36.6289 34.6689 37.2846C33.5712 38.2409 31.9205 38.0049 30.4766 37.8237C30.2583 37.7779 30.0317 37.7903 29.8196 37.8597C29.279 38.0903 29.3035 38.8436 29.2962 39.4318C29.2521 40.4638 28.8441 41.4468 28.1445 42.2062C27.4449 42.9656 26.4991 43.4523 25.475 43.5798C24.9019 43.6684 24.3171 43.5255 23.8492 43.1827C23.4392 42.8348 23.2298 42.2679 22.76 42.0066C21.9959 41.5816 21.0691 42.2015 20.5104 42.8745C19.9517 43.5475 19.4011 44.3754 18.5356 44.4986C17.3909 44.6615 16.5191 43.4938 16.0913 42.4187C15.5012 40.9117 15.2185 39.3017 15.2598 37.6837C15.3012 36.0656 15.6657 34.4722 16.3321 32.9975C18.7222 27.7824 26.8868 26.9576 31.1954 30.0135Z" fill="#2F2E41"/>
<path d="M241.956 169.751C245.048 175.03 251.285 177.119 251.285 177.119C251.285 177.119 252.508 170.651 249.415 165.373C246.323 160.095 240.087 158.005 240.087 158.005C240.087 158.005 238.864 164.473 241.956 169.751Z" fill="#F2F2F2"/>
<path d="M243.886 167.909C249.233 170.874 251.473 177.063 251.473 177.063C251.473 177.063 245.044 178.445 239.696 175.481C234.349 172.516 232.108 166.327 232.108 166.327C232.108 166.327 238.538 164.945 243.886 167.909Z" fill="#3498DB"/>
</g>
<defs>
<clipPath id="clip0_576_451">
<rect width="276" height="159" fill="white" transform="translate(0 28)"/>
</clipPath>
</defs>
</svg>
