<svg width="80" height="80" viewBox="0 0 80 80" fill="none" xmlns="http://www.w3.org/2000/svg">
<path d="M9.99997 57.5V70H22.5L59.3666 33.1L46.8666 20.6L9.99997 57.5ZM75.3666 61.2L61.2 75.3666L43.8666 58.0333L49.7666 52.1333L53.1 55.4666L61.3333 47.2L66.0666 51.9333L61.2 56.6666L64.7333 60L69.4666 55.3333L75.3666 61.2ZM22.0333 36.1L4.6333 18.8L18.8 4.6333L24.6666 10.5333L16.4333 18.8L20 22.3333L28.2 14.0666L32.9333 18.8L28.2 23.5L31.5333 26.8333L22.0333 36.1ZM69.0333 23.3333C70.3333 22.0333 70.3333 20 69.0333 18.6333L61.2333 10.9666C60 9.66663 57.8333 9.66663 56.5333 10.9666L50.4 17.0666L62.9 29.5666L69.0333 23.3333Z" fill="#3498DB"/>
</svg>
