<svg width="15" height="16" viewBox="0 0 15 16" fill="none" xmlns="http://www.w3.org/2000/svg">
<path d="M14.175 0.5H0.825C0.606196 0.5 0.396355 0.586919 0.241637 0.741637C0.0869195 0.896355 0 1.1062 0 1.325V14.675C0 14.8938 0.0869195 15.1036 0.241637 15.2584C0.396355 15.4131 0.606196 15.5 0.825 15.5H8.01V9.6875H6.06V7.4375H8.01V5.75C7.96961 5.35382 8.01638 4.9536 8.14704 4.5774C8.27769 4.20121 8.48907 3.85816 8.76635 3.57231C9.04362 3.28646 9.38008 3.06473 9.75212 2.92268C10.1242 2.78063 10.5228 2.72169 10.92 2.75C11.5037 2.74641 12.0872 2.77646 12.6675 2.84V4.865H11.475C10.53 4.865 10.35 5.315 10.35 5.9675V7.415H12.6L12.3075 9.665H10.35V15.5H14.175C14.2833 15.5 14.3906 15.4787 14.4907 15.4372C14.5908 15.3957 14.6818 15.335 14.7584 15.2584C14.835 15.1818 14.8957 15.0908 14.9372 14.9907C14.9787 14.8906 15 14.7833 15 14.675V1.325C15 1.21666 14.9787 1.10938 14.9372 1.00929C14.8957 0.909193 14.835 0.818245 14.7584 0.741637C14.6818 0.665029 14.5908 0.60426 14.4907 0.562799C14.3906 0.521339 14.2833 0.5 14.175 0.5Z" fill="#3498DB"/>
</svg>
