<svg width="17" height="16" viewBox="0 0 17 16" fill="none" xmlns="http://www.w3.org/2000/svg">
<path d="M5.22887 0H11.9489C14.5089 0 16.5889 2.08 16.5889 4.64V11.36C16.5889 12.5906 16.1 13.7708 15.2298 14.641C14.3597 15.5111 13.1795 16 11.9489 16H5.22887C2.66887 16 0.588867 13.92 0.588867 11.36V4.64C0.588867 3.4094 1.07772 2.22919 1.94789 1.35902C2.81806 0.488856 3.99826 0 5.22887 0ZM5.06887 1.6C4.30504 1.6 3.5725 1.90343 3.0324 2.44353C2.4923 2.98364 2.18887 3.71618 2.18887 4.48V11.52C2.18887 13.112 3.47687 14.4 5.06887 14.4H12.1089C12.8727 14.4 13.6052 14.0966 14.1453 13.5565C14.6854 13.0164 14.9889 12.2838 14.9889 11.52V4.48C14.9889 2.888 13.7009 1.6 12.1089 1.6H5.06887ZM12.7889 2.8C13.0541 2.8 13.3084 2.90536 13.496 3.09289C13.6835 3.28043 13.7889 3.53478 13.7889 3.8C13.7889 4.06522 13.6835 4.31957 13.496 4.50711C13.3084 4.69464 13.0541 4.8 12.7889 4.8C12.5237 4.8 12.2693 4.69464 12.0818 4.50711C11.8942 4.31957 11.7889 4.06522 11.7889 3.8C11.7889 3.53478 11.8942 3.28043 12.0818 3.09289C12.2693 2.90536 12.5237 2.8 12.7889 2.8ZM8.58887 4C9.64973 4 10.6671 4.42143 11.4173 5.17157C12.1674 5.92172 12.5889 6.93913 12.5889 8C12.5889 9.06087 12.1674 10.0783 11.4173 10.8284C10.6671 11.5786 9.64973 12 8.58887 12C7.528 12 6.51059 11.5786 5.76044 10.8284C5.01029 10.0783 4.58887 9.06087 4.58887 8C4.58887 6.93913 5.01029 5.92172 5.76044 5.17157C6.51059 4.42143 7.528 4 8.58887 4ZM8.58887 5.6C7.95235 5.6 7.3419 5.85286 6.89181 6.30294C6.44172 6.75303 6.18887 7.36348 6.18887 8C6.18887 8.63652 6.44172 9.24697 6.89181 9.69706C7.3419 10.1471 7.95235 10.4 8.58887 10.4C9.22539 10.4 9.83584 10.1471 10.2859 9.69706C10.736 9.24697 10.9889 8.63652 10.9889 8C10.9889 7.36348 10.736 6.75303 10.2859 6.30294C9.83584 5.85286 9.22539 5.6 8.58887 5.6Z" fill="#3498DB"/>
</svg>
