<svg width="15" height="16" viewBox="0 0 15 16" fill="none" xmlns="http://www.w3.org/2000/svg">
<path d="M2.14286 0.5C0.960937 0.5 0 1.46094 0 2.64286V13.3571C0 14.5391 0.960937 15.5 2.14286 15.5H12.8571C14.0391 15.5 15 14.5391 15 13.3571V2.64286C15 1.46094 14.0391 0.5 12.8571 0.5H2.14286ZM12.0904 3.3125L8.61495 7.28348L12.7031 12.6875H9.50223L6.99777 9.4096L4.12835 12.6875H2.53795L6.25446 8.43862L2.33371 3.3125H5.61496L7.8817 6.30915L10.5 3.3125H12.0904ZM10.8248 11.7366L5.13616 4.21317H4.18862L9.94085 11.7366H10.8214H10.8248Z" fill="#3498DB"/>
</svg>
